<svg width="55" height="64" viewBox="0 0 55 64" fill="none" xmlns="http://www.w3.org/2000/svg">
<path fill-rule="evenodd" clip-rule="evenodd" d="M42.5833 0C44.1967 0 45.7441 0.640921 46.8849 1.78177C48.0257 2.92261 48.6667 4.46993 48.6667 6.08333V9.125H51.7083C52.515 9.125 53.2887 9.44546 53.8591 10.0159C54.4295 10.5863 54.75 11.36 54.75 12.1667C54.75 12.9734 54.4295 13.747 53.8591 14.3174C53.2887 14.8879 52.515 15.2083 51.7083 15.2083V48.6667C52.515 48.6667 53.2887 48.9871 53.8591 49.5575C54.4295 50.128 54.75 50.9016 54.75 51.7083C54.75 52.515 54.4295 53.2887 53.8591 53.8591C53.2887 54.4295 52.515 54.75 51.7083 54.75H31.9375V41.0625C31.9375 39.8525 31.4568 38.692 30.6012 37.8363C29.7455 36.9807 28.5851 36.5 27.375 36.5C26.165 36.5 25.0045 36.9807 24.1488 37.8363C23.2932 38.692 22.8125 39.8525 22.8125 41.0625V54.75H3.04167C2.23497 54.75 1.46131 54.4295 0.890883 53.8591C0.32046 53.2887 0 52.515 0 51.7083C0 50.9016 0.32046 50.128 0.890883 49.5575C1.46131 48.9871 2.23497 48.6667 3.04167 48.6667V15.2083C2.23497 15.2083 1.46131 14.8879 0.890883 14.3174C0.32046 13.747 0 12.9734 0 12.1667C0 11.36 0.32046 10.5863 0.890883 10.0159C1.46131 9.44546 2.23497 9.125 3.04167 9.125H6.08333V6.08333C6.08333 4.46993 6.72425 2.92261 7.8651 1.78177C9.00595 0.640921 10.5533 0 12.1667 0H42.5833ZM15.2083 30.4167C14.4016 30.4167 13.628 30.7371 13.0576 31.3076C12.4871 31.878 12.1667 32.6516 12.1667 33.4583V36.5C12.1667 37.3067 12.4871 38.0804 13.0576 38.6508C13.628 39.2212 14.4016 39.5417 15.2083 39.5417C16.015 39.5417 16.7887 39.2212 17.3591 38.6508C17.9295 38.0804 18.25 37.3067 18.25 36.5V33.4583C18.25 32.6516 17.9295 31.878 17.3591 31.3076C16.7887 30.7371 16.015 30.4167 15.2083 30.4167ZM39.5417 30.4167C38.7967 30.4168 38.0776 30.6903 37.5209 31.1853C36.9641 31.6804 36.6085 32.3626 36.5213 33.1025L36.5 33.4583V36.5C36.5009 37.2753 36.7977 38.0209 37.3299 38.5847C37.8621 39.1484 38.5895 39.4876 39.3634 39.5331C40.1373 39.5785 40.8994 39.3267 41.4939 38.8291C42.0884 38.3315 42.4705 37.6257 42.562 36.8559L42.5833 36.5V33.4583C42.5833 32.6516 42.2629 31.878 41.6925 31.3076C41.122 30.7371 40.3484 30.4167 39.5417 30.4167ZM15.2083 18.25C14.4633 18.2501 13.7443 18.5236 13.1875 19.0187C12.6308 19.5137 12.2751 20.1959 12.188 20.9358L12.1667 21.2917V24.3333C12.1675 25.1086 12.4644 25.8543 12.9966 26.418C13.5288 26.9817 14.2561 27.321 15.0301 27.3664C15.804 27.4118 16.5661 27.16 17.1606 26.6624C17.7551 26.1649 18.1371 25.459 18.2287 24.6892L18.25 24.3333V21.2917C18.25 20.485 17.9295 19.7113 17.3591 19.1409C16.7887 18.5705 16.015 18.25 15.2083 18.25ZM27.375 18.25C26.63 18.2501 25.9109 18.5236 25.3542 19.0187C24.7975 19.5137 24.4418 20.1959 24.3546 20.9358L24.3333 21.2917V24.3333C24.3342 25.1086 24.631 25.8543 25.1632 26.418C25.6954 26.9817 26.4228 27.321 27.1967 27.3664C27.9707 27.4118 28.7327 27.16 29.3272 26.6624C29.9217 26.1649 30.3038 25.459 30.3954 24.6892L30.4167 24.3333V21.2917C30.4167 20.485 30.0962 19.7113 29.5258 19.1409C28.9554 18.5705 28.1817 18.25 27.375 18.25ZM39.5417 18.25C38.735 18.25 37.9613 18.5705 37.3909 19.1409C36.8205 19.7113 36.5 20.485 36.5 21.2917V24.3333C36.5 25.14 36.8205 25.9137 37.3909 26.4841C37.9613 27.0545 38.735 27.375 39.5417 27.375C40.3484 27.375 41.122 27.0545 41.6925 26.4841C42.2629 25.9137 42.5833 25.14 42.5833 24.3333V21.2917C42.5833 20.485 42.2629 19.7113 41.6925 19.1409C41.122 18.5705 40.3484 18.25 39.5417 18.25ZM42.5833 6.08333H12.1667V9.125H42.5833V6.08333Z" fill="black"/>
</svg>
